<?xml version="1.0" standalone="no"?><!DOCTYPE svg PUBLIC "-//W3C//DTD SVG 1.1//EN" "http://www.w3.org/Graphics/SVG/1.1/DTD/svg11.dtd"><svg t="1599787487023" class="icon" viewBox="0 0 1024 1024" version="1.1" xmlns="http://www.w3.org/2000/svg" p-id="2546" xmlns:xlink="http://www.w3.org/1999/xlink" width="64" height="64"><defs><style type="text/css"></style></defs><path d="M0 0h1024v1024H0z" fill="#bfbfbf" opacity=".01" p-id="2547"></path><path d="M335.644444 804.977778c-14.222222 0-25.6-8.533333-31.288888-19.911111L164.977778 489.244444c-8.533333-17.066667 0-36.977778 17.066666-45.511111 17.066667-8.533333 36.977778 0 45.511112 17.066667l128 270.222222 210.488888-51.2-139.377777-275.911111c-5.688889-14.222222-2.844444-28.444444 5.688889-39.822222L625.777778 173.511111c5.688889-5.688889 17.066667-11.377778 25.6-8.533333 8.533333 0 17.066667 5.688889 25.6 11.377778l176.355555 207.644444c11.377778 14.222222 11.377778 36.977778-2.844444 48.355556-14.222222 11.377778-36.977778 11.377778-48.355556-2.844445l-150.755555-179.2-147.911111 147.911111 145.066666 290.133334c5.688889 8.533333 5.688889 19.911111 0 28.444444-5.688889 8.533333-11.377778 17.066667-22.755555 19.911111l-278.755556 71.111111c-5.688889-2.844444-8.533333-2.844444-11.377778-2.844444z" fill="#bfbfbf" p-id="2548"></path></svg>