<?xml version="1.0" standalone="no"?><!DOCTYPE svg PUBLIC "-//W3C//DTD SVG 1.1//EN" "http://www.w3.org/Graphics/SVG/1.1/DTD/svg11.dtd"><svg t="1599788659281" class="icon" viewBox="0 0 1024 1024" version="1.1" xmlns="http://www.w3.org/2000/svg" p-id="5821" xmlns:xlink="http://www.w3.org/1999/xlink" width="64" height="64"><defs><style type="text/css"></style></defs><path d="M669.12768 697.68704C616.55296 718.56384 556.90752 729.6 496.64 729.6c-60.26496 0-119.90784-11.03616-172.48512-31.9104-26.28352-10.43456-56.04608 2.40896-66.48064 28.68992-10.43456 26.28352 2.41152 56.04608 28.69248 66.48064C350.85056 818.46528 423.56224 832 496.64 832c73.08288 0 145.79712-13.53472 210.28096-39.1424 26.28096-10.43456 39.12448-40.19968 28.68992-66.4832-10.43712-26.2784-40.19712-39.13216-66.4832-28.68736zM629.31712 486.83264l208.16896 352.86784 29.49376-147.57376 134.1184-69.28896zM161.28 555.52c-48.07168 0-87.04 38.96832-87.04 87.04 0 40.064 27.07968 73.78432 63.92576 83.91424 1.57696 13.58336 1.01888 29.24288-5.81632 42.33728-8.50176 16.2816-27.1872 27.46624-55.53408 33.2416-20.78208 4.23168-34.19392 24.512-29.96224 45.29152 3.70688 18.19392 19.712 30.74304 37.58848 30.74304 2.53952 0 5.12-0.25344 7.7056-0.7808 64.91904-13.22496 94.71744-46.97088 108.28288-72.94976 16.6016-31.79264 17.19808-65.74336 13.376-92.40064C234.76992 696.064 248.32 670.8992 248.32 642.56c0-48.07168-38.96832-87.04-87.04-87.04z" p-id="5822" fill="#bfbfbf"></path><path d="M102.64832 545.50528c28.17024-2.46272 49.0112-27.29216 46.54848-55.4624A189.10208 189.10208 0 0 1 148.48 473.6c0-65.79712 34.4448-128.52992 96.98816-176.64C311.99488 245.78304 401.19808 217.6 496.64 217.6s184.64512 28.18304 251.17184 79.36C810.3552 345.07008 844.8 407.80288 844.8 473.6c0 8.25344-0.54528 16.5632-1.62048 24.69888-3.70432 28.03456 16.01536 53.76256 44.04992 57.46688 2.2784 0.30208 4.53632 0.448 6.77376 0.448 25.2928 0 47.29088-18.7392 50.69312-44.49792 1.66144-12.5696 2.50624-25.3952 2.50624-38.1184 0-98.31424-48.63744-189.87008-136.95232-257.8048C725.91872 150.9248 614.54336 115.2 496.64 115.2S267.36128 150.9248 183.03232 215.7952C94.71744 283.72992 46.08 375.28576 46.08 473.6c0 8.44288 0.3712 16.9728 1.10592 25.3568 2.46272 28.17024 27.32288 49.01632 55.4624 46.54848z" p-id="5823" fill="#bfbfbf"></path></svg>