<?xml version="1.0" standalone="no"?><!DOCTYPE svg PUBLIC "-//W3C//DTD SVG 1.1//EN" "http://www.w3.org/Graphics/SVG/1.1/DTD/svg11.dtd"><svg t="1599787555290" class="icon" viewBox="0 0 1024 1024" version="1.1" xmlns="http://www.w3.org/2000/svg" p-id="2806" xmlns:xlink="http://www.w3.org/1999/xlink" width="64" height="64"><defs><style type="text/css"></style></defs><path d="M1024 331.9c0-54.8-44.5-99.2-99.2-99.2-54.8 0-99.2 44.4-99.2 99.2 0 29.4 13.1 55.6 33.5 73.8L785.1 652c-0.6 0.1-1.3 0.1-1.9 0.1L484.7 216.5c8.8-14.8 14.2-31.9 14.2-50.3 0-54.8-44.5-99.3-99.3-99.3s-99.3 44.5-99.3 99.3c0 21.1 6.7 40.4 17.8 56.4L81.6 790C35.3 798.4 0 838.7 0 887.5c0 54.8 44.5 99.2 99.3 99.2 54.7 0 99.2-44.4 99.2-99.2 0-30.4-13.9-57.4-35.5-75.6L391.1 264.5c2.9 0.2 5.5 0.9 8.4 0.9 5.6 0 10.9-0.8 16.2-1.7l298.5 435.7c-8.7 14.7-14.1 31.9-14.1 50.3 0 54.8 44.4 99.2 99.2 99.2s99.2-44.4 99.2-99.2c0-29.6-13.1-55.7-33.4-73.9l73.8-246.2c48.2-6.9 85.1-47.8 85.1-97.7z" fill="#bfbfbf" p-id="2807"></path></svg>