<?xml version="1.0" standalone="no"?><!DOCTYPE svg PUBLIC "-//W3C//DTD SVG 1.1//EN" "http://www.w3.org/Graphics/SVG/1.1/DTD/svg11.dtd"><svg t="1600176511169" class="icon" viewBox="0 0 1024 1024" version="1.1" xmlns="http://www.w3.org/2000/svg" p-id="2161" xmlns:xlink="http://www.w3.org/1999/xlink" width="64" height="64"><defs><style type="text/css"></style></defs><path d="M853.32992 102.4H170.67008C133.13024 102.4 102.4 133.13024 102.4 170.67008v682.65984C102.4 890.86976 133.13024 921.6 170.67008 921.6h682.65984C890.86976 921.6 921.6 890.86976 921.6 853.32992V170.67008C921.6 133.13024 890.86976 102.4 853.32992 102.4zM204.8 204.8h477.87008v68.27008H204.8V204.8z m0 273.07008h477.87008v68.25984H204.8v-68.25984zM682.67008 819.2H204.8v-68.27008h477.87008V819.2zM819.2 682.67008H341.32992V614.4H819.2v68.27008zM819.2 409.6H341.32992v-68.27008H819.2V409.6z" p-id="2162" fill="#bfbfbf"></path></svg>